VIDEO INFO:


Format                           : Matroska
File size                        : 4.37 GiB
Duration                         : 1h 57mn
Overall bit rate                 : 5 332 Kbps
Encoded date                     : UTC 2011-07-29 17:11:45
Writing application              : mkvmerge v4.9.1 ('Ich will') gemaakt op Jul 11 2011 23:53:15
Writing library                  : libebml v1.2.1 + libmatroska v1.1.1

Video
ID                               : 1
Format                           : AVC
Format/Info                      : Advanced Video Codec
Format profile                   : Main@L5.1
Format settings, CABAC           : Yes
Format settings, ReFrames        : 8 frames
Codec ID                         : V_MPEG4/ISO/AVC
Duration                         : 1h 57mn
Bit rate                         : 4 691 Kbps
Width                            : 1 280 pixels
Height                           : 688 pixels
Display aspect ratio             : 1.860
Frame rate                       : 23.976 fps
Color space                      : YUV
Chroma subsampling               : 4:2:0
Bit depth                        : 8 bits
Scan type                        : Progressive
Bits/(Pixel*Frame)               : 0.222
Stream size                      : 3.76 GiB (86%)
Writing library                  : x264 core 55 svn-656
Encoding settings                : cabac=1 / ref=5 / deblock=1:-2:-1 / analyse=0x1:0 / me=umh / subme=7 / brdo=1 / mixed_ref=1 / me_range=16 / chroma_me=1 / trellis=1 / 8x8dct=0 / cqm=0 / deadzone=21,11 / chroma_qp_offset=0 / threads=2 / nr=0 / decimate=1 / mbaff=0 / bframes=3 / b_pyramid=1 / b_adapt=1 / b_bias=0 / direct=1 / wpredb=1 / bime=1 / keyint=250 / keyint_min=25 / scenecut=40(pre) / rc=2pass / bitrate=4691 / ratetol=1.0 / rceq='blurCplx^(1-qComp)' / qcomp=0.60 / qpmin=10 / qpmax=51 / qpstep=4 / cplxblur=20.0 / qblur=0.5 / ip_ratio=1.40 / pb_ratio=1.30
Language                         : English

Audio
ID                               : 2
Format                           : AC-3
Format/Info                      : Audio Coding 3
Mode extension                   : CM (complete main)
Codec ID                         : A_AC3
Duration                         : 1h 57mn
Bit rate mode                    : Constant
Bit rate                         : 640 Kbps
Channel(s)                       : 6 channels
Channel positions                : Front: L C R, Side: L R, LFE
Sampling rate                    : 48.0 KHz
Bit depth                        : 16 bits
Compression mode                 : Lossy
Stream size                      : 537 MiB (12%)
Language                         : English

Text
ID                               : 3
Format                           : UTF-8
Codec ID                         : S_TEXT/UTF8
Codec ID/Info                    : UTF-8 Plain Text
Language                         : Dutch

-------------------------------------

Verenigde Staten / Verenigd Koninkrijk
Komedie
117 minuten

geregisseerd door Joel Coen
met Jeff Bridges, John Goodman en Steve Buscemi

Jeffrey "The Dude" Lebowski krijgt bezoek van twee boze gangsters die inbreken in zijn huis en z'n tapijt onder plassen. Ze denken dat hij de miljonair is met dezelfde naam, wiens vrouw grote schulden heeft. The Dude besluit de echte Lebowski op te zoeken om geld te eisen voor z'n tapijt, maar raakt betrokken bij een plan van Lebowski.

-Ondertiteling (nederlands) met de mogelijkheid deze aan/uit te zetten.

+++++++++++++++++++++++++++++++++++++

EXTRA: Kort Youtube filmpje met fragmenten uit de film waarin niets anders gedaan wordt dan vloeken. (.flv bestand, niet ondertiteld...lijkt mij ook niet nodig maar is wel hilarisch)